<?xml version="1.0" encoding="UTF-8" standalone="no"?>
<svg
   version="1.0"
   viewBox="0 0 510 504"
   id="svg217"
   sodipodi:docname="paper.svg"
   inkscape:version="1.2 (dc2aeda, 2022-05-15)"
   xmlns:inkscape="http://www.inkscape.org/namespaces/inkscape"
   xmlns:sodipodi="http://sodipodi.sourceforge.net/DTD/sodipodi-0.dtd"
   xmlns="http://www.w3.org/2000/svg"
   xmlns:svg="http://www.w3.org/2000/svg">
  <defs
     id="defs221" />
  <sodipodi:namedview
     id="namedview219"
     pagecolor="#ffffff"
     bordercolor="#000000"
     borderopacity="0.25"
     inkscape:showpageshadow="2"
     inkscape:pageopacity="0.0"
     inkscape:pagecheckerboard="0"
     inkscape:deskcolor="#d1d1d1"
     showgrid="false"
     inkscape:zoom="0.47"
     inkscape:cx="255.31915"
     inkscape:cy="251.06383"
     inkscape:window-width="1344"
     inkscape:window-height="456"
     inkscape:window-x="0"
     inkscape:window-y="25"
     inkscape:window-maximized="0"
     inkscape:current-layer="svg217" />
  <path
     d="m 356.7934,48.550116 c -2.93078,1.25605 -11.93248,8.164328 -19.88746,15.072607 l -14.23524,12.979189 -58.61569,0.837367 c -51.91677,0.628025 -59.45308,1.256051 -64.47727,4.605519 -9.21104,5.86157 -60.70912,57.987672 -67.19871,67.617392 -4.81486,7.74564 -5.65222,11.09511 -5.86156,24.49298 0,19.0501 3.14012,24.91167 16.74734,30.77324 l 9.83906,4.18684 -46.05519,46.47387 c -70.757521,71.38554 -95.04117,96.7159 -101.1120684,105.29891 -4.814861,6.69893 -5.44289335,9.62972 -5.23354922,23.23693 0.20934413,8.58301 1.46539542,17.79406 2.93079082,20.51549 3.3494655,6.28026 22.1902208,14.65393 40.1936138,18.21274 7.745638,1.4654 13.60722,3.14012 13.188531,3.9775 -1.674739,2.5121 5.652224,10.46708 13.397876,14.23524 11.723136,6.07091 33.285336,11.09511 40.402956,9.62972 3.55881,-0.83736 10.0484,-5.23355 14.44458,-9.62972 4.39618,-4.39618 8.58302,-8.16433 9.00169,-8.16433 0.62804,0 1.25606,2.09341 1.67474,4.60552 1.25605,9.00169 32.86665,21.14351 46.05519,17.5847 2.72144,-0.62802 10.67642,-6.90827 18.00339,-14.02589 l 12.97919,-12.97919 4.81486,4.18683 c 6.4896,6.28025 23.86496,11.5138 31.61061,9.83906 5.0242,-0.83736 25.95837,-20.72484 87.92353,-82.06196 C 437.59933,259.98529 438.22735,259.56662 440.11143,242.19125 l 1.46538,-13.18854 31.61062,-33.07599 c 17.5847,-18.21274 32.44797,-34.54139 33.49468,-36.42547 2.72145,-4.60552 4.39617,-46.89255 2.09341,-55.26623 C 506.26342,94.395961 497.26173,89.999785 433.83118,68.856267 364.7484,45.828672 363.70168,45.61933 356.7934,48.550116 Z m 71.17621,30.773238 c 34.96006,11.513798 64.89594,22.608916 66.78002,24.283646 2.72145,2.72144 3.14012,7.74565 2.5121,27.00508 l -0.62803,23.86496 -30.35455,30.35456 c -16.74734,16.74734 -30.98258,30.35456 -31.81995,30.35456 -1.04671,0 -1.67473,-4.81486 -1.67473,-10.67643 0,-7.5363 -0.83738,-10.25775 -2.5121,-9.83906 -2.09342,0.62802 -2.93079,9.00169 -3.34947,30.14522 l -0.62803,29.09849 -88.55157,88.76091 c -86.66748,86.6675 -88.97024,88.76091 -95.45984,87.29552 -15.0726,-2.93078 -17.79405,-5.65222 -18.42208,-17.79405 l -0.62802,-11.30446 34.54139,-34.75072 c 19.0501,-19.25944 34.75073,-36.00679 34.75073,-37.47218 0,-6.28026 -7.74565,-0.20935 -39.1469,31.40127 -23.23695,23.44627 -34.33206,36.00677 -35.16943,40.40295 -1.46539,5.86157 -30.98258,38.51889 -38.93756,42.91507 -4.18684,2.30275 -24.0743,-2.9308 -29.5172,-7.95499 -4.39617,-3.76815 -5.23353,-24.91168 -1.46538,-32.44797 1.25604,-2.51211 22.19022,-24.493 46.26453,-48.77663 29.51718,-29.5172 43.1244,-44.79914 41.44966,-45.84585 -3.55881,-2.09342 -93.36643,87.71419 -95.2505,95.04115 -1.88408,7.32697 -30.14521,35.79744 -35.58809,35.79744 -7.117622,0 -31.191926,-8.583 -33.913373,-12.14181 -3.55881,-4.39618 -3.349465,-24.49299 0.209344,-31.40127 1.674726,-3.14013 25.749031,-28.26114 53.382149,-55.68491 27.63311,-27.6331 49.82333,-50.87005 49.19531,-51.91675 -0.62802,-0.83737 -2.09341,-1.67474 -3.34946,-1.67474 -1.25605,0 -25.5397,23.44628 -54.01018,51.91676 -37.053492,37.47217 -52.126094,54.01018 -53.591489,59.03437 -1.046708,3.76815 -4.605517,8.79236 -7.745652,11.09512 l -5.652224,4.39617 -15.281946,-4.81485 c -8.164326,-2.72144 -16.328666,-5.86158 -17.584718,-6.90829 -1.88407,-1.46538 -2.721433,-7.95498 -2.721433,-18.21272 V 366.95894 L 126.09878,254.96109 c 61.54648,-61.54647 111.99784,-112.8352 111.99784,-113.67257 0,-6.07091 -11.51379,2.72144 -37.89086,29.0985 l -30.77323,30.77324 -14.44459,-5.0242 -14.23524,-5.0242 -0.62803,-16.538 -0.62802,-16.538 34.1227,-34.33205 34.33206,-34.122708 h 57.98767 c 39.35625,0 59.6624,-0.837367 62.80253,-2.30276 2.5121,-1.465393 10.88578,-8.373671 18.63141,-15.700633 7.53631,-7.326962 14.44459,-13.397873 15.28195,-13.397873 1.04671,0 30.35456,9.420379 65.31464,21.143518 z"
     id="path215"
     style="stroke-width:2.09341" />
</svg>
