<?xml version="1.0" encoding="UTF-8" standalone="no"?>
<svg
   version="1.0"
   viewBox="0 0 464 470"
   id="svg62"
   sodipodi:docname="rock.svg"
   inkscape:version="1.2 (dc2aeda, 2022-05-15)"
   xmlns:inkscape="http://www.inkscape.org/namespaces/inkscape"
   xmlns:sodipodi="http://sodipodi.sourceforge.net/DTD/sodipodi-0.dtd"
   xmlns="http://www.w3.org/2000/svg"
   xmlns:svg="http://www.w3.org/2000/svg">
  <defs
     id="defs66" />
  <sodipodi:namedview
     id="namedview64"
     pagecolor="#ffffff"
     bordercolor="#000000"
     borderopacity="0.25"
     inkscape:showpageshadow="2"
     inkscape:pageopacity="0.0"
     inkscape:pagecheckerboard="0"
     inkscape:deskcolor="#d1d1d1"
     showgrid="false"
     inkscape:zoom="0.50212766"
     inkscape:cx="231.01695"
     inkscape:cy="235"
     inkscape:window-width="1344"
     inkscape:window-height="456"
     inkscape:window-x="0"
     inkscape:window-y="25"
     inkscape:window-maximized="0"
     inkscape:current-layer="svg62" />
  <path
     d="m 277.26197,57.336894 c -9.32073,7.771627 -23.53487,19.954175 -31.69053,27.305713 l -15.14619,13.232766 -61.74991,0.210053 c -58.02162,0.210043 -68.740455,0.420086 -80.624396,2.940624 -2.563199,0.42008 -23.301851,17.85374 -46.137667,38.43803 L 0.669,177.06196 v 19.74413 c 0,21.84456 2.0971648,26.88561 13.981107,32.34677 3.961319,1.89037 7.689614,5.88121 9.08772,10.0821 1.631129,3.99084 5.359438,9.45197 8.388672,11.9725 5.359425,4.62097 5.825459,6.51138 5.825459,23.52493 0,18.27382 0.233026,18.6939 8.155649,26.6756 7.456589,7.35152 8.155648,9.24189 8.155648,20.37425 0,9.24191 1.39812,14.28299 5.359424,19.53407 9.553768,13.44283 10.951874,15.96335 10.951874,22.68475 0,7.56159 6.291507,13.02273 22.136753,19.32404 17.709424,7.1415 125.596984,38.228 136.315834,39.48827 l 10.48583,1.05022 41.94333,-35.70748 c 23.06885,-19.74412 54.99238,-48.31011 70.83765,-63.43327 29.59334,-28.35592 32.62259,-32.76685 32.85559,-50.41055 0,-6.51135 3.49528,-10.5022 31.92354,-36.75769 47.30276,-44.10923 44.97257,-40.1184 44.97257,-74.5656 0,-27.30572 -0.23301,-28.98607 -5.82546,-35.91752 -8.38865,-10.29216 -75.03196,-70.784806 -85.98382,-77.926299 -9.08773,-5.881232 -9.55377,-5.881232 -42.6424,-5.881232 h -33.55466 z m 78.06121,-1.680352 c 6.99054,2.520527 90.87722,78.556438 93.44043,84.647708 1.16508,2.73057 1.63113,14.91314 1.16508,27.30572 l -0.69905,22.68475 -33.78768,30.45636 -33.78768,30.45638 -1.1651,-9.24191 c -1.39812,-10.29217 -3.02925,-12.81269 -6.75754,-10.71226 -1.63113,0.84016 -2.5632,11.97251 -2.5632,30.03628 v 28.56598 l -66.87632,60.49266 c -44.0405,39.69832 -68.74045,60.49266 -71.76969,60.49266 -8.85472,0 -144.471486,-42.00879 -147.267709,-45.57954 -3.96132,-4.62099 -3.96132,-17.43365 0,-17.43365 1.631128,0 27.962239,7.56159 58.720669,16.80352 30.75843,9.24193 57.78857,16.80352 60.11878,16.80352 13.51506,0 -4.66037,-7.14152 -63.84707,-24.99523 -36.35089,-11.13234 -67.575384,-21.00439 -69.206512,-21.84458 -3.029236,-1.8904 -3.961305,-28.77603 -0.932071,-28.77603 0.932071,0 31.457483,9.03189 67.808383,19.95419 36.35089,10.92228 67.10933,19.32404 68.04142,18.6939 1.16507,-0.63012 2.09715,-1.89039 2.09715,-2.9406 0,-0.84017 -33.78768,-11.9725 -75.03196,-24.3651 C 91.546219,304.97871 56.36042,293.8464 54.962315,292.58612 52.86515,291.32586 51.933067,284.3944 51.933067,272.0018 c 0,-10.29214 0.233024,-18.6939 0.699059,-18.6939 0.233024,0 33.554664,9.87207 73.866864,22.05461 40.31221,12.18256 75.26497,22.05462 77.59518,22.05462 14.21412,0 -6.75755,-7.77163 -80.15838,-29.82625 -50.565014,-15.12315 -83.653642,-26.2555 -85.517797,-28.35592 -2.330174,-2.73057 -2.79621,-10.29216 -2.330174,-27.30572 l 0.699045,-23.73496 20.971676,-18.90396 c 11.417907,-10.29215 22.60279,-18.90396 24.466945,-18.90396 2.097165,0 22.369755,5.67117 45.438615,12.60264 44.50652,13.44282 47.7688,14.07295 47.7688,9.87207 0,-2.94062 -83.886681,-28.77602 -93.906475,-28.77602 -4.427354,0 -10.718849,3.99083 -22.835816,14.07296 -26.797134,22.68473 -30.059393,27.72578 -30.059393,46.20965 0,15.12318 -0.233011,15.54326 -5.126401,14.28299 -9.320742,-2.52052 -11.650932,-7.35155 -10.718847,-22.68476 l 0.93207,-14.28298 38.914088,-35.07734 38.914093,-35.07733 88.547031,-1.05022 c 56.15746,-0.63014 88.78006,-1.89041 89.24609,-3.15068 0.23302,-1.26024 -4.42734,-2.31048 -10.48583,-2.73055 -6.29151,-0.42009 -11.18488,-1.26026 -11.18488,-2.10044 0,-2.31049 46.83671,-43.689147 52.42916,-46.209676 5.59245,-2.940614 47.53577,-3.360703 55.22539,-0.630132 z"
     id="path58"
     style="stroke-width:2.21234" />
  <path
     d="m 201.74396,153.13288 c 0,16.97307 -1.16382,33.94615 -2.56041,38.06084 -3.25868,10.02955 -23.04352,31.63164 -28.86259,31.63164 -2.56041,0 -22.1125,-6.42919 -43.06116,-14.14423 -20.94866,-7.71504 -39.104182,-14.14423 -40.03523,-14.14423 -0.931047,0 -1.862109,1.54301 -1.862109,3.34319 0,3.60035 76.811789,32.91748 86.122299,32.66031 4.18974,0 10.47434,-5.14336 20.94867,-16.71591 l 15.1296,-16.97309 v -36.26065 c 0,-26.74546 -0.6983,-36.51784 -2.79316,-37.28934 -2.32763,-1.02867 -3.02591,6.17203 -3.02591,29.83147 z"
     id="path60"
     style="stroke-width:2.44662" />
</svg>
