<?xml version="1.0" encoding="UTF-8" standalone="no"?>
<svg
   version="1.0"
   viewBox="0 0 510 476"
   id="svg321"
   sodipodi:docname="scissors.svg"
   inkscape:version="1.2 (dc2aeda, 2022-05-15)"
   xmlns:inkscape="http://www.inkscape.org/namespaces/inkscape"
   xmlns:sodipodi="http://sodipodi.sourceforge.net/DTD/sodipodi-0.dtd"
   xmlns="http://www.w3.org/2000/svg"
   xmlns:svg="http://www.w3.org/2000/svg">
  <defs
     id="defs325" />
  <sodipodi:namedview
     id="namedview323"
     pagecolor="#ffffff"
     bordercolor="#000000"
     borderopacity="0.25"
     inkscape:showpageshadow="2"
     inkscape:pageopacity="0.0"
     inkscape:pagecheckerboard="0"
     inkscape:deskcolor="#d1d1d1"
     showgrid="false"
     inkscape:zoom="0.49579832"
     inkscape:cx="254.13559"
     inkscape:cy="238"
     inkscape:window-width="1344"
     inkscape:window-height="456"
     inkscape:window-x="0"
     inkscape:window-y="25"
     inkscape:window-maximized="0"
     inkscape:current-layer="svg321" />
  <path
     d="m 357.70083,45.870508 c -7.33676,0.949718 -20.06817,10.256945 -48.9836,35.139532 l -17.47872,15.005529 h -30.21014 c -31.50487,0 -52.00461,1.329606 -56.75192,3.608926 -1.5105,0.759775 -18.34188,15.005535 -37.33111,31.530605 -37.11532,32.48033 -38.62584,34.56971 -38.62584,54.13388 v 10.63683 L 91.204182,206.75258 C 5.3210661,231.63518 4.0263362,232.205 1.0053317,239.61279 c -1.29472993,2.65922 -2.1578741,12.91616 -2.1578741,22.60327 0,21.84349 2.5894462,25.45241 24.3839044,32.29038 20.499742,6.64802 33.231159,6.26814 62.36237,-2.08938 13.378775,-3.79886 25.247048,-7.02791 26.541778,-7.40778 1.07893,-0.18996 4.96309,-1.32962 8.1999,-2.46927 3.45257,-1.32961 6.47359,-2.27933 6.68938,-2.27933 0.43157,0 1.29471,6.64802 1.94209,15.00553 0.64735,8.16757 2.15786,16.52509 3.23679,18.61445 1.94208,3.0391 -0.64736,6.26814 -18.12609,22.41334 -36.036387,33.43004 -40.136335,38.17862 -42.294196,48.05568 -1.942088,9.30723 -0.431572,25.45241 2.805219,31.15073 2.589446,4.36869 12.515631,8.73738 28.699637,12.91613 23.30498,5.69832 25.03126,4.93853 68.40441,-33.05014 l 33.87852,-30.01107 31.07329,8.92734 c 16.83137,4.93854 35.17324,10.06701 40.35213,11.58655 14.45771,3.98881 22.22603,3.41899 31.72064,-2.6592 12.08406,-7.78769 112.85648,-96.87115 120.19324,-106.17838 4.09994,-5.31841 6.47359,-11.20666 7.55252,-19.18428 l 1.51052,-11.3966 31.07328,-28.68146 c 17.04715,-15.57536 33.01537,-31.15073 35.17325,-34.18981 3.66838,-5.12848 4.09995,-8.7374 3.45259,-31.15072 l -0.64737,-25.45242 -7.76831,-8.35751 C 485.44659,103.99319 431.4999,56.887227 422.43686,51.568811 c -7.76833,-4.558642 -11.00513,-5.128472 -33.23116,-5.698303 -13.59456,-0.379886 -27.62071,-0.379886 -31.50487,0 z m 55.02563,12.916153 c 3.23679,1.519547 23.08917,18.234568 44.23627,37.418853 L 495.157,130.77522 v 47.48586 l -30.64173,27.35185 c -16.83136,15.00553 -31.50486,27.16189 -32.36801,27.16189 -0.86315,0 -1.72629,-3.79886 -1.72629,-8.54744 0,-6.26814 -0.86315,-8.54747 -3.23681,-8.54747 -2.80523,0 -3.2368,3.98881 -3.2368,25.07254 v 25.07253 l -61.9308,54.89365 c -34.31009,30.20101 -63.65708,55.46348 -65.59917,56.4132 -2.15786,1.13966 -15.96822,-2.08939 -41.86263,-9.49717 -21.1471,-6.26813 -39.92055,-11.7765 -41.86263,-12.34632 -2.37366,-0.94973 -1.5105,-2.65922 4.74731,-8.16757 l 7.98411,-6.83797 21.1471,6.07818 c 24.3839,7.02791 24.16812,7.02791 24.16812,3.41899 0,-1.70949 -6.6894,-4.55864 -17.69451,-7.78768 -9.9262,-2.84916 -18.55767,-5.69829 -19.42081,-6.45808 -0.86315,-0.75977 7.12096,-8.92733 17.69451,-18.23456 18.34188,-16.14519 22.8734,-21.8435 16.83136,-21.8435 -1.5105,0 -34.95745,28.30157 -74.44643,63.06122 l -71.64119,63.06122 -16.61558,-4.55865 c -9.063045,-2.65921 -17.9103,-5.88825 -19.636602,-7.21785 -1.726288,-1.7095 -2.805232,-7.0279 -2.805232,-15.19547 v -12.53627 l 71.209634,-62.87127 c 45.31522,-40.07805 71.20963,-64.39082 71.20963,-66.67013 0,-4.93854 -4.09995,-8.35752 -9.7104,-8.35752 -2.37366,0 -39.2732,10.25694 -81.99897,22.79322 -42.725784,12.53627 -80.056891,22.7932 -83.077896,22.60326 -3.021018,0 -12.731431,-2.27932 -21.578685,-5.12848 L 12.873591,279.31096 V 241.32228 L 122.92484,209.03191 c 73.79907,-21.65355 111.56175,-33.80994 115.01434,-36.46915 3.88416,-3.60892 4.74731,-6.26812 4.74731,-16.71501 0,-9.68712 -0.64736,-12.34633 -3.23681,-12.34633 -2.58943,0 -3.23679,2.46927 -3.23679,10.82677 0,6.0782 -0.86316,12.15639 -1.7263,13.48599 -1.29472,1.7095 -88.25678,28.8714 -92.57251,28.8714 -0.43157,0 -0.64736,-6.07819 -0.64736,-13.67593 v -13.67591 l 34.52588,-30.39096 34.31009,-30.58089 58.90979,-0.94971 c 50.4941,-0.75978 58.90978,-1.32961 58.90978,-3.79887 0,-2.08938 -3.02102,-3.0391 -10.35777,-3.798871 l -10.35776,-0.949718 24.59969,-21.463606 24.59969,-21.273662 h 25.24705 c 17.47872,0 26.97335,0.759774 31.0733,2.659208 z M 217.65522,251.19934 c 2.37366,2.27932 -20.71552,21.46361 -26.11019,21.46361 -5.39466,0 -8.41568,2.84915 -4.7473,4.93852 3.021,1.51956 -32.15223,33.05016 -36.89954,33.05016 -6.47361,0 -8.63147,-4.36871 -8.63147,-17.47479 0,-11.96644 0.43157,-13.48599 7.12095,-19.56418 5.61047,-5.50835 12.08406,-8.16756 34.95746,-15.00553 29.99436,-9.11728 31.93645,-9.49716 34.31009,-7.40779 z"
     id="path319"
     style="stroke-width:2.02453" />
</svg>
